<svg xmlns="http://www.w3.org/2000/svg" width="64" height="64" id="candle-halloween-light-darkness-wax-holder">
  <g fill="none" fill-rule="evenodd">
    <path fill="#5D5D5E" d="M49.482 62.446H7.621L2.313 51.382H54.79z"></path>
    <path fill="#2E2E30" d="M8.445 61.128h40.213l4.043-8.43h-48.3l4.044 8.43Zm41.037 2.635H7.62c-.505 0-.964-.29-1.183-.745L1.13 51.953a1.32 1.32 0 0 1 .071-1.273c.24-.384.66-.617 1.111-.617h52.479c.45 0 .871.233 1.11.617.241.384.268.864.072 1.273l-5.308 11.065a1.312 1.312 0 0 1-1.183.745Z"></path>
    <path fill="#010202" d="m47.79 51.381-5.307 11.064h7l5.307-11.064z" opacity=".3"></path>
    <path fill="#2E2E30" d="M54.79 52.699c-.724 0-1.312-.59-1.312-1.318V36.768c0-2.762 2.239-5.01 4.99-5.01 2.753 0 4.991 2.248 4.991 5.01v2.825c0 .728-.588 1.318-1.313 1.318-.724 0-1.312-.59-1.312-1.318v-2.825a2.373 2.373 0 0 0-2.365-2.375 2.373 2.373 0 0 0-2.366 2.375v14.613c0 .728-.588 1.318-1.313 1.318"></path>
    <path fill="#FEFEFE" d="M18.929 51.382h19.245V22.719H18.93z"></path>
    <path fill="#2E2E30" d="M20.241 50.063h16.62V24.037h-16.62v26.026Zm17.933 2.635H18.93c-.725 0-1.313-.589-1.313-1.317V22.719c0-.728.588-1.317 1.313-1.317h19.245c.725 0 1.313.59 1.313 1.317v28.662c0 .728-.588 1.317-1.313 1.317Z"></path>
    <path fill="#010202" d="M32.05 51.38h6.124V22.72H32.05z" opacity=".3"></path>
    <path fill="#F27721" d="M35.46 13.146c0 3.83-3.094 6.934-6.909 6.934s-6.907-3.105-6.907-6.934c0-3.83 6.907-11.47 6.907-11.47s6.908 7.64 6.908 11.47"></path>
    <path fill="#2E2E30" d="M28.551 3.678c-2.478 2.941-5.595 7.343-5.595 9.468 0 3.097 2.51 5.616 5.595 5.616 3.086 0 5.596-2.52 5.596-5.616 0-2.125-3.117-6.527-5.596-9.468m0 17.72c-4.532 0-8.22-3.702-8.22-8.252 0-4.217 6.506-11.535 7.25-12.356.496-.55 1.445-.55 1.942 0 .743.82 7.25 8.14 7.25 12.356 0 4.55-3.689 8.251-8.222 8.251"></path>
    <path fill="#010202" d="M28.551 1.676s-.128.144-.34.387c1.82 2.462 3.749 5.544 3.749 7.569 0 3.83-3.094 6.935-6.909 6.935a6.858 6.858 0 0 1-2.807-.603c1.077 2.424 3.493 4.116 6.307 4.116 3.815 0 6.909-3.105 6.909-6.935 0-3.83-6.909-11.469-6.909-11.469" opacity=".3"></path>
    <path fill="#FEFEFE" d="M36.951 20.577h-16.8a3.762 3.762 0 0 0-3.754 3.77v10.898c0 2.215 1.806 4.027 4.012 4.027h.055c2.206 0 4.012-1.812 4.012-4.027v-.466c0-2.131 1.539-4.055 3.651-4.256 2.394-.227 4.427 1.678 4.427 4.037v4.026c0 2.216 1.806 4.028 4.012 4.028h.055c2.247 0 4.085-1.846 4.085-4.101V24.346c0-2.082-1.68-3.769-3.755-3.769"></path>
    <path fill="#2E2E30" d="M28.504 29.188c1.327 0 2.618.496 3.607 1.4a5.396 5.396 0 0 1 1.755 3.972v4.026a2.709 2.709 0 0 0 2.7 2.71c1.583 0 2.827-1.248 2.827-2.784V24.346a2.45 2.45 0 0 0-2.442-2.452h-16.8a2.45 2.45 0 0 0-2.441 2.452v10.899a2.708 2.708 0 0 0 2.699 2.71c1.543 0 2.754-1.216 2.754-2.71v-.467c0-2.863 2.126-5.309 4.84-5.567.167-.016.335-.023.501-.023m8.116 14.744c-2.99 0-5.379-2.398-5.379-5.346V34.56c0-.765-.327-1.503-.896-2.023a2.7 2.7 0 0 0-2.094-.702c-1.381.13-2.463 1.424-2.463 2.943v.467c0 2.947-2.388 5.345-5.324 5.345-2.99 0-5.38-2.398-5.38-5.345v-10.9c0-2.804 2.274-5.086 5.068-5.086H36.95c2.795 0 5.067 2.282 5.067 5.087v14.166c0 2.989-2.421 5.42-5.398 5.42"></path>
    <g fill="#010202" opacity=".3">
      <path d="M36.951 20.577h-5.25a3.762 3.762 0 0 1 3.755 3.77v14.166c0 1.256-.582 2.37-1.475 3.124.7.6 1.597.977 2.585.977h.055c2.247 0 4.085-1.846 4.085-4.101V24.346c0-2.082-1.68-3.769-3.755-3.769M28.552 29.067c-6.51-.015-8.452 3.58-8.452 5.712v.466c0 1.217-.557 2.3-1.414 3.04a3.967 3.967 0 0 0 2.598.987h.054c2.207 0 4.012-1.812 4.012-4.027v-.466c0-1.271.556-2.46 1.447-3.263-.801-.706 1.755-2.449 1.755-2.449"></path>
    </g>
  </g>
</svg>
